<svg xmlns="http://www.w3.org/2000/svg" viewBox="0 0 415.87 176.62"><defs><style>.cls-1{fill:#f9d348;}.cls-2{fill:#ec9c3f;}.cls-3{fill:#d4353e;}.cls-4{fill:#2968a5;}</style></defs><g id="图层_2" data-name="图层 2"><g id="图层_1-2" data-name="图层 1"><circle class="cls-1" cx="142.97" cy="51.38" r="51.38"/><circle class="cls-2" cx="51.38" cy="125.24" r="51.38"/><circle class="cls-3" cx="51.38" cy="51.38" r="51.38"/><path class="cls-4" d="M122.24,134.5c0-10.36,6.93-16.29,14.83-16.29a13.25,13.25,0,0,1,9.44,4.05L142.58,127a7.69,7.69,0,0,0-5.39-2.42c-4,0-7.31,3.59-7.31,9.65s2.84,9.77,7.23,9.77a8.07,8.07,0,0,0,5.93-2.84l3.93,4.68a12.94,12.94,0,0,1-10.15,4.59C128.92,150.45,122.24,145,122.24,134.5Z"/><path class="cls-4" d="M149.88,143.23c0-5,3.93-7.73,13.2-8.73-.17-1.92-1.17-3.05-3.59-3.05a13,13,0,0,0-6.22,2.09l-2.59-4.89a19.73,19.73,0,0,1,10.23-3.13c6.14,0,9.6,3.43,9.6,10.86v13.49h-6l-.54-2.38h-.17a10.17,10.17,0,0,1-6.81,3A6.86,6.86,0,0,1,149.88,143.23Zm13.2-.42V139c-4.63.63-6.14,2-6.14,3.63,0,1.38,1,2.05,2.55,2.05A4.67,4.67,0,0,0,163.08,142.81Z"/><path class="cls-4" d="M176.27,141.06v-9.15h-3.21V126.4l3.63-.29.84-6.27h6.18v6.27h5.59v5.8h-5.59V141c0,2.63,1.25,3.68,3,3.68a8.28,8.28,0,0,0,2.17-.42l1.17,5.35a17.77,17.77,0,0,1-5.39.87C178.7,150.45,176.27,146.7,176.27,141.06Z"/><path class="cls-4" d="M191.89,143.23c0-5,3.93-7.73,13.2-8.73-.17-1.92-1.17-3.05-3.59-3.05a13,13,0,0,0-6.23,2.09l-2.59-4.89a19.79,19.79,0,0,1,10.24-3.13c6.13,0,9.6,3.43,9.6,10.86v13.49h-6.05l-.55-2.38h-.16a10.19,10.19,0,0,1-6.81,3C194.56,150.45,191.89,147.2,191.89,143.23Zm13.2-.42V139c-4.64.63-6.14,2-6.14,3.63,0,1.38,1,2.05,2.55,2.05A4.69,4.69,0,0,0,205.09,142.81Z"/><path class="cls-4" d="M218.24,142.14V116.5h7.39v25.94c0,1.54.75,2,1.34,2a3.58,3.58,0,0,0,.83-.08l.88,5.47a9.83,9.83,0,0,1-3.68.62C219.91,150.45,218.24,147.11,218.24,142.14Z"/><path class="cls-4" d="M242.25,118.8h7.47v11.82H260V118.8h7.4v31.07H260V137.09H249.72v12.78h-7.47Z"/><path class="cls-4" d="M272.65,138c0-7.89,5.59-12.49,11.65-12.49s11.61,4.6,11.61,12.49-5.6,12.44-11.61,12.44S272.65,145.86,272.65,138Zm15.66,0c0-4-1.26-6.47-4-6.47s-4.05,2.5-4.05,6.47,1.25,6.43,4.05,6.43S288.31,141.93,288.31,138Z"/><path class="cls-4" d="M298.28,147.11l3.3-4.63a10.06,10.06,0,0,0,6,2.5c2,0,2.79-.71,2.79-1.88,0-1.42-2.29-2.08-4.72-3-2.84-1.12-6.18-3-6.18-7,0-4.51,3.68-7.56,9.19-7.56a13.78,13.78,0,0,1,8.52,3L313.86,133a9.12,9.12,0,0,0-4.93-2c-1.67,0-2.5.59-2.5,1.71,0,1.42,2.17,2,4.63,2.84,3,1.13,6.27,2.84,6.27,7.15s-3.43,7.76-9.9,7.76A15.24,15.24,0,0,1,298.28,147.11Z"/><path class="cls-4" d="M321.62,126.11h6.06l.5,2.29h.17a10.33,10.33,0,0,1,6.68-2.88c5.68,0,9.27,4.76,9.27,12.07,0,8.19-4.89,12.86-10,12.86a7.77,7.77,0,0,1-5.51-2.46l.21,3.72v6.8h-7.4Zm15,11.61c0-4.18-1.21-6.14-3.84-6.14a5.06,5.06,0,0,0-3.8,2V143a5.21,5.21,0,0,0,3.55,1.38C334.82,144.36,336.66,142.48,336.66,137.72Z"/><path class="cls-4" d="M348.56,119c0-2.26,1.75-3.85,4.26-3.85A3.88,3.88,0,0,1,357,119c0,2.21-1.75,3.8-4.21,3.8S348.56,121.22,348.56,119Zm.54,7.1h7.39v23.76H349.1Z"/><path class="cls-4" d="M363.46,141.06v-9.15h-3.21V126.4l3.63-.29.84-6.27h6.18v6.27h5.59v5.8H370.9V141c0,2.63,1.25,3.68,3,3.68a8.12,8.12,0,0,0,2.17-.42l1.17,5.35a17.63,17.63,0,0,1-5.38.87C365.88,150.45,363.46,146.7,363.46,141.06Z"/><path class="cls-4" d="M379.08,143.23c0-5,3.92-7.73,13.2-8.73-.17-1.92-1.17-3.05-3.6-3.05a13,13,0,0,0-6.22,2.09l-2.59-4.89a19.76,19.76,0,0,1,10.23-3.13c6.14,0,9.61,3.43,9.61,10.86v13.49h-6.06l-.54-2.38h-.17a10.14,10.14,0,0,1-6.8,3C381.75,150.45,379.08,147.2,379.08,143.23Zm13.2-.42V139c-4.64.63-6.14,2-6.14,3.63,0,1.38,1,2.05,2.54,2.05A4.69,4.69,0,0,0,392.28,142.81Z"/><path class="cls-4" d="M405.43,142.14V116.5h7.39v25.94c0,1.54.75,2,1.34,2a3.58,3.58,0,0,0,.83-.08l.88,5.47a9.87,9.87,0,0,1-3.68.62C407.1,150.45,405.43,147.11,405.43,142.14Z"/></g></g></svg>